<svg xmlns="http://www.w3.org/2000/svg" viewBox="0 0 671.98 177.91"><defs><style>.cls-1{fill:none;stroke:#b8c409;stroke-linecap:square;stroke-linejoin:bevel;stroke-width:8px;}.cls-2{fill:#e52521;}.cls-3{fill:#fff;}.cls-4{fill:#e4e02e;}.cls-5{fill:#024f42;}.cls-6{fill:#b8c409;}</style></defs><title>Asset 3Logo</title><g id="Layer_2" data-name="Layer 2"><g id="Capa_1" data-name="Capa 1"><path class="cls-1" d="M325,14,354.6,164.24H331.69a13.52,13.52,0,0,1-13.33-11.31l-2.7-16.44H247.51L233.81,158a13.52,13.52,0,0,1-11.39,6.25h-45a11.33,11.33,0,0,1-11.11-13.53l17.45-88.2-59.29,92.18a20.81,20.81,0,0,1-17.5,9.55H88.66L65.35,62.51,43.89,164.24h-19a11.33,11.33,0,0,1-11.06-13.77L43.89,14H75A14.12,14.12,0,0,1,88.86,25.31l21,102.11L176.61,23.9A21.53,21.53,0,0,1,194.7,14H228L195.55,163.64,281.47,21.92a16.38,16.38,0,0,1,14-7.89H325m-63.71,97.62h51L301,42.38l-39.74,69.27M325,4.5H295.48A26.07,26.07,0,0,0,273.31,17l-56.35,93,20.36-93.88A9.53,9.53,0,0,0,228,4.5H194.7a31,31,0,0,0-26.11,14.23l-54.1,83.89L98.2,23.39A23.74,23.74,0,0,0,75,4.5H43.89A9.54,9.54,0,0,0,34.57,12L4.5,148.42a20.87,20.87,0,0,0,20.37,25.36h19a9.54,9.54,0,0,0,9.33-7.57l12.51-59.32,13.63,59.48a9.55,9.55,0,0,0,9.3,7.41H107a30.23,30.23,0,0,0,25.52-13.93l32.19-50L157,148.86a20.87,20.87,0,0,0,20.47,24.92h45a23,23,0,0,0,19.43-10.66L252.74,146h54.82l1.39,8.45a23,23,0,0,0,22.74,19.3H354.6A9.54,9.54,0,0,0,364,162.39L334.35,12.19A9.53,9.53,0,0,0,325,4.5Zm-47.24,97.62,18.17-31.68,5.15,31.68Z"/><path class="cls-1" d="M618.12,13.54a10,10,0,0,1,9.8,12.19L603.38,137.32h46.06a9,9,0,0,1,8.83,10.75L655,164.34H577.89A11,11,0,0,1,567.13,151l29.7-137.46h21.29m0-9.54H596.83a9.53,9.53,0,0,0-9.32,7.52L557.8,149a20.56,20.56,0,0,0,20.09,24.89H655a9.55,9.55,0,0,0,9.36-7.68l3.23-16.27a18.55,18.55,0,0,0-18.19-22.15H615.25l22-100A19.57,19.57,0,0,0,618.12,4Z"/><path class="cls-1" d="M537.86,13.83,567.47,164H544.56a13.5,13.5,0,0,1-13.33-11.31l-2.71-16.44H460.37l-13.7,21.5A13.48,13.48,0,0,1,435.28,164H408.05L494.33,21.73a16.4,16.4,0,0,1,14-7.9h29.51m-63.71,97.63h51L513.89,42.18l-39.74,69.28M537.86,4.3H508.35a26.07,26.07,0,0,0-22.17,12.48L399.9,159.1a9.53,9.53,0,0,0,8.15,14.48h27.23a22.93,22.93,0,0,0,19.43-10.66l10.9-17.09h54.82l1.39,8.45a23,23,0,0,0,22.74,19.3h22.91a9.54,9.54,0,0,0,9.35-11.38L547.22,12a9.53,9.53,0,0,0-9.36-7.69Zm-47.25,97.62,18.18-31.68,5.14,31.68Z"/><path class="cls-1" d="M537.86,13.83,567.47,164H544.56a13.5,13.5,0,0,1-13.33-11.31l-2.71-16.44H460.37l-13.7,21.5A13.48,13.48,0,0,1,435.28,164H408.05L494.33,21.73a16.4,16.4,0,0,1,14-7.9h29.51m-63.71,97.63h51L513.89,42.18l-39.74,69.28M537.86,4.3H508.35a26.07,26.07,0,0,0-22.17,12.48L399.9,159.1a9.53,9.53,0,0,0,8.15,14.48h27.23a22.93,22.93,0,0,0,19.43-10.66l10.9-17.09h54.82l1.39,8.45a23,23,0,0,0,22.74,19.3h22.91a9.54,9.54,0,0,0,9.35-11.38L547.22,12a9.53,9.53,0,0,0-9.36-7.69Zm-47.25,97.62,18.18-31.68,5.14,31.68Z"/><path class="cls-1" d="M493.22,13.9h0m0,0L403.14,156A17.94,17.94,0,0,1,388,164.37H361.56L332.16,13.9H353.9a16,16,0,0,1,15.8,13.6l16,105.88,65.05-110.3a18.66,18.66,0,0,1,16.07-9.18h26.43m0-9.54H466.79a28.3,28.3,0,0,0-24.28,13.88L391.09,105.4,379.14,26.08A25.53,25.53,0,0,0,353.9,4.36H332.16a9.53,9.53,0,0,0-9.36,11.37L352.2,166.2a9.54,9.54,0,0,0,9.36,7.71H388a27.32,27.32,0,0,0,23.2-12.77l90-142a9.55,9.55,0,0,0-7.94-14.82Zm0,19.08h0Z"/><path class="cls-2" d="M295.42,14.13a16.39,16.39,0,0,0-14,7.9L195.49,163.74,228,14.13h-33.3A21.54,21.54,0,0,0,176.55,24L109.79,127.52,88.8,25.41A14.12,14.12,0,0,0,75,14.13H43.83L13.75,150.57a11.33,11.33,0,0,0,11.06,13.77h19L65.29,62.61,88.6,164.34h18.32a20.8,20.8,0,0,0,17.49-9.55l59.3-92.18-17.46,88.2a11.32,11.32,0,0,0,11.11,13.53h45a13.52,13.52,0,0,0,11.39-6.25l13.7-21.5H315.6L318.31,153a13.5,13.5,0,0,0,13.32,11.31h22.91L324.94,14.13Zm-34.19,97.62L301,42.48l11.26,69.27Z"/><path class="cls-3" d="M324.94,14.13l29.6,150.21H331.63A13.5,13.5,0,0,1,318.31,153l-2.71-16.44H247.45l-13.7,21.5a13.52,13.52,0,0,1-11.39,6.25h-45a11.32,11.32,0,0,1-11.11-13.53l17.46-88.2-59.3,92.18a20.8,20.8,0,0,1-17.49,9.55H88.6L65.29,62.61,43.83,164.34h-19a11.33,11.33,0,0,1-11.06-13.77L43.83,14.13H75A14.12,14.12,0,0,1,88.8,25.41l21,102.11L176.55,24a21.54,21.54,0,0,1,18.1-9.87H228L195.49,163.74,281.41,22a16.39,16.39,0,0,1,14-7.9h29.52m-63.71,97.62h51L301,42.48l-39.73,69.27M324.94,4.6H295.42a26.08,26.08,0,0,0-22.17,12.48L216.9,110l20.37-93.88A9.54,9.54,0,0,0,228,4.6h-33.3a30.93,30.93,0,0,0-26.11,14.23l-54.11,83.89L98.14,23.49A23.73,23.73,0,0,0,75,4.6H43.83a9.52,9.52,0,0,0-9.31,7.48L4.44,148.52a20.87,20.87,0,0,0,20.37,25.36h19a9.54,9.54,0,0,0,9.33-7.57L65.67,107l13.64,59.48a9.53,9.53,0,0,0,9.29,7.41h18.32A30.2,30.2,0,0,0,132.43,160l32.19-50L156.89,149a20.87,20.87,0,0,0,20.47,24.92h45a23,23,0,0,0,19.43-10.66l10.89-17.09H307.5l1.4,8.45a23,23,0,0,0,22.73,19.3h22.91a9.54,9.54,0,0,0,9.36-11.38L334.29,12.29a9.53,9.53,0,0,0-9.35-7.69Zm-47.25,97.62,18.17-31.68L301,102.22Z"/><path class="cls-2" d="M649.39,137.42H603.33L627.87,25.83a10,10,0,0,0-9.8-12.19h-21.3L567.07,151.1a11,11,0,0,0,10.76,13.34H655l3.23-16.27A9,9,0,0,0,649.39,137.42Z"/><path class="cls-3" d="M618.07,13.64a10,10,0,0,1,9.8,12.19L603.33,137.42h46.06a9,9,0,0,1,8.83,10.75L655,164.44H577.83a11,11,0,0,1-10.76-13.34l29.7-137.46h21.3m0-9.54h-21.3a9.53,9.53,0,0,0-9.32,7.52l-29.7,137.47A20.55,20.55,0,0,0,577.83,174H655a9.54,9.54,0,0,0,9.35-7.68L667.57,150a18.55,18.55,0,0,0-18.18-22.15h-34.2l22-100A19.57,19.57,0,0,0,618.07,4.1Z"/><path class="cls-2" d="M537.8,13.94H508.29a16.38,16.38,0,0,0-14,7.89L408,164.14h27.23a13.46,13.46,0,0,0,11.38-6.25l13.71-21.5h68.15l2.7,16.44a13.51,13.51,0,0,0,13.33,11.31h22.91Zm-63.71,97.62,39.74-69.28,11.26,69.28Z"/><path class="cls-4" d="M537.8,13.94l29.61,150.2H544.5a13.51,13.51,0,0,1-13.33-11.31l-2.7-16.44H460.32l-13.71,21.5a13.46,13.46,0,0,1-11.38,6.25H408L494.28,21.83a16.38,16.38,0,0,1,14-7.89H537.8m-63.71,97.62h51L513.83,42.28l-39.74,69.28M537.8,4.4H508.29a26.07,26.07,0,0,0-22.17,12.48L399.84,159.2A9.54,9.54,0,0,0,408,173.68h27.23A23,23,0,0,0,454.66,163l10.89-17.09h54.82l1.39,8.45a23,23,0,0,0,22.74,19.3h22.91a9.54,9.54,0,0,0,9.36-11.38L547.16,12.09A9.53,9.53,0,0,0,537.8,4.4ZM490.56,102l18.17-31.68L513.88,102Z"/><path class="cls-2" d="M537.8,13.94H508.29a16.38,16.38,0,0,0-14,7.89L408,164.14h27.23a13.46,13.46,0,0,0,11.38-6.25l13.71-21.5h68.15l2.7,16.44a13.51,13.51,0,0,0,13.33,11.31h22.91Zm-63.71,97.62,39.74-69.28,11.26,69.28Z"/><path class="cls-3" d="M537.8,13.94l29.61,150.2H544.5a13.51,13.51,0,0,1-13.33-11.31l-2.7-16.44H460.32l-13.71,21.5a13.46,13.46,0,0,1-11.38,6.25H408L494.28,21.83a16.38,16.38,0,0,1,14-7.89H537.8m-63.71,97.62h51L513.83,42.28l-39.74,69.28M537.8,4.4H508.29a26.07,26.07,0,0,0-22.17,12.48L399.84,159.2A9.54,9.54,0,0,0,408,173.68h27.23A23,23,0,0,0,454.66,163l10.89-17.09h54.82l1.39,8.45a23,23,0,0,0,22.74,19.3h22.91a9.54,9.54,0,0,0,9.36-11.38L547.16,12.09A9.53,9.53,0,0,0,537.8,4.4ZM490.56,102l18.17-31.68L513.88,102Z"/><path class="cls-2" d="M537.8,13.94H508.29a16.38,16.38,0,0,0-14,7.89L408,164.14h27.23a13.46,13.46,0,0,0,11.38-6.25l13.71-21.5h68.15l2.7,16.44a13.51,13.51,0,0,0,13.33,11.31h22.91Zm-63.71,97.62,39.74-69.28,11.26,69.28Z"/><path class="cls-2" d="M488.89,103.74h25.26l-5.58-34.3Zm7.42-3.87,9.84-17.16,2.79,17.16Z"/><path class="cls-5" d="M466.74,14a18.67,18.67,0,0,0-16.08,9.18l-65.05,110.3-16-105.88A16,16,0,0,0,353.84,14H332.1l29.4,150.47h26.43a17.94,17.94,0,0,0,15.15-8.33L493.17,14Z"/><path class="cls-3" d="M493.17,14h0m0,0L403.08,156.14a17.94,17.94,0,0,1-15.15,8.33H361.5L332.1,14h21.74a16,16,0,0,1,15.81,13.6l16,105.88,65.05-110.3A18.67,18.67,0,0,1,466.74,14h26.43m0-9.54H466.74a28.31,28.31,0,0,0-24.29,13.88L391,105.5l-12-79.32A25.53,25.53,0,0,0,353.84,4.46H332.1a9.55,9.55,0,0,0-9.36,11.37l29.4,150.47A9.54,9.54,0,0,0,361.5,174h26.43a27.32,27.32,0,0,0,23.2-12.77l90-142a9.55,9.55,0,0,0-7.94-14.82Zm0,19.08Z"/><path class="cls-5" d="M649.39,137.42H603.33L627.87,25.83a10,10,0,0,0-9.8-12.19h-21.3L567.07,151.1a11,11,0,0,0,10.76,13.34H655l3.23-16.27A9,9,0,0,0,649.39,137.42Z"/><path class="cls-6" d="M276,103.94h25.25l-5.57-34.31Zm7.42-3.87,9.84-17.16,2.78,17.16Z"/><path class="cls-5" d="M537.8,13.94H508.29a16.38,16.38,0,0,0-14,7.89L408,164.14h27.23a13.46,13.46,0,0,0,11.38-6.25l13.71-21.5h68.15l2.7,16.44a13.51,13.51,0,0,0,13.33,11.31h22.91Zm-63.71,97.62,39.74-69.28,11.26,69.28Z"/><path class="cls-5" d="M537.8,13.94H508.29a16.38,16.38,0,0,0-14,7.89L408,164.14h27.23a13.46,13.46,0,0,0,11.38-6.25l13.71-21.5h68.15l2.7,16.44a13.51,13.51,0,0,0,13.33,11.31h22.91Zm-63.71,97.62,39.74-69.28,11.26,69.28Z"/><path class="cls-5" d="M537.8,13.94H508.29a16.38,16.38,0,0,0-14,7.89L408,164.14h27.23a13.46,13.46,0,0,0,11.38-6.25l13.71-21.5h68.15l2.7,16.44a13.51,13.51,0,0,0,13.33,11.31h22.91Zm-63.71,97.62,39.74-69.28,11.26,69.28Z"/><path class="cls-5" d="M488.89,103.74h25.26l-5.58-34.3Zm7.42-3.87,9.84-17.16,2.79,17.16Z"/><path class="cls-6" d="M295.42,14.13a16.39,16.39,0,0,0-14,7.9L195.49,163.74,228,14.13h-33.3A21.54,21.54,0,0,0,176.55,24L109.79,127.52,88.8,25.41A14.12,14.12,0,0,0,75,14.13H43.83L13.75,150.57a11.33,11.33,0,0,0,11.06,13.77h19L65.29,62.61,88.6,164.34h18.32a20.8,20.8,0,0,0,17.49-9.55l59.3-92.18-17.46,88.2a11.32,11.32,0,0,0,11.11,13.53h45a13.52,13.52,0,0,0,11.39-6.25l13.7-21.5H315.6L318.31,153a13.5,13.5,0,0,0,13.32,11.31h22.91L324.94,14.13Zm-34.19,97.62L301,42.48l11.26,69.27Z"/></g></g></svg>