<svg xmlns="http://www.w3.org/2000/svg" viewBox="0 0 63.45 72"><defs><style>.cls-1{fill:#deb09d;}.cls-2{fill:#f9cfb3;}.cls-3{fill:#e2bba1;}.cls-4{fill:#7b371c;}.cls-5{fill:#728d96;}.cls-6{fill:#647c82;}.cls-7{fill:#e6e7e8;}</style></defs><title>female</title><g id="Layer_2" data-name="Layer 2"><g id="_1" data-name="1"><g id="_14" data-name="14"><g id="_10" data-name="10"><path class="cls-1" d="M28.9,50.22a10.42,10.42,0,0,1-3.66-1.14A8.78,8.78,0,0,1,22.81,47a14.36,14.36,0,0,0-1.56,3,.43.43,0,0,0,0,.25c1.59,5.17,3.13,10.73,7.81,14a9,9,0,0,0,2.19,1.16,6.52,6.52,0,0,0,6-1c2.37-1.82,2.5-4.92,3.33-7.56.69-2.2,1.36-4.4,2-6.61a.43.43,0,0,0,0-.25l-.75-2.16A20.26,20.26,0,0,1,28.9,50.22Z"/><path class="cls-1" d="M40.57,44.38a1.15,1.15,0,0,0,0-.19,21.53,21.53,0,0,1-.12-6.41l-.95.89L39,39.1a7.71,7.71,0,0,1-5.31,2.29,7.71,7.71,0,0,1-5.32-2.29l-.48-.43a28.9,28.9,0,0,1-2.6-2.59,18.93,18.93,0,0,1-.6,7.18A13.84,13.84,0,0,1,22.81,47a8.78,8.78,0,0,0,2.43,2.08,10.42,10.42,0,0,0,3.66,1.14,20.26,20.26,0,0,0,12.91-2.39l-1.22-3.49Z"/><path class="cls-2" d="M45.22,21.51l-.09-.16a25.3,25.3,0,0,1-1.46-4.77c-.42-1.49-1.22-2.82-1.39-4.39.15,1.35-3.7,3.15-4.68,3.83a27.92,27.92,0,0,1-3.9,2V41.39A7.71,7.71,0,0,0,39,39.1l.48-.43.95-.89a15.89,15.89,0,0,0,4.29-6.25A6.65,6.65,0,0,0,45,30.39a1.7,1.7,0,0,0,1.38-.56,3.41,3.41,0,0,0,.32-1.31c.06-.6.11-2,.17-2.61C47.07,23.68,46.13,23.17,45.22,21.51Z"/><path class="cls-3" d="M33.7,18a36.29,36.29,0,0,0-7,2.55c-2.43,1.35-4.79,3.84-7,5.62.27,1.47.92,3.89,2.31,4,.43,0,.66.53.73.95a10.26,10.26,0,0,0,2.55,5,28.9,28.9,0,0,0,2.6,2.59l.48.43a7.71,7.71,0,0,0,5.32,2.29V35.13l0-17.11.05,0Z"/><path class="cls-3" d="M23,46.74a1.78,1.78,0,0,1,0,.39L22.82,47Z"/><path class="cls-4" d="M36,.14A16.78,16.78,0,0,0,20.26,7,19.64,19.64,0,0,0,17.79,12c-1.43,4.17-2.36,8.78-1.57,13.19a13.41,13.41,0,0,0,2.41,5.71,9.56,9.56,0,0,0,4.52,3.3A3.81,3.81,0,0,1,22.36,33a7.7,7.7,0,0,1-.52-1.18,9.67,9.67,0,0,1-.46-2.25,6.38,6.38,0,0,1,1-4.3c2-2.77,7-4,10-5.2s10.14-3.64,9.93-7.84a22.41,22.41,0,0,0,1.43,6.06c1.21,2.71,2.67,4.83,3,7.91a15.54,15.54,0,0,1-2.29,9.61,3.86,3.86,0,0,0,2.92-1.43C51.13,30.05,53,23.75,52.88,18c-.1-5-1.61-9.15-5.58-12.22-.35-.27-3.71-2.15-3.68-1.52C43.52,2,37.62.35,36,.14Z"/><path class="cls-5" d="M63.45,72A96.41,96.41,0,0,0,61.6,59.11C60.21,53.89,57.13,52.51,52,51c-.78-.24-11.3-1.83-10.6-4.12-2.31,7.56-5.13,14.39-7.45,22L33,72Z"/><path class="cls-6" d="M12.08,72H30.6l-1-3.21C27.29,61.22,25.49,54,23.17,46.44c0,.37-5.11,2.87-5.65,3.08a30,30,0,0,1-5.79,1.24C12.89,57.64,12.38,64.82,12.08,72Z"/><path class="cls-7" d="M29.38,72h5l3.27-7.69a51.72,51.72,0,0,0,2.44-5.63c.36-1.2.9-2.32,1.24-3.53.17-.6.26-3.35.62-3.65a14.23,14.23,0,0,1-15.13,2.15c-1.5-.67-2.93-2.36-4.57-2.43A134.65,134.65,0,0,0,29.38,72Z"/><path class="cls-6" d="M39.46,72c3.17-4.73,6.1-9,6-9.21l-3.34-6,4.54.48c-.47-1.44-1.51-8.51-2.84-9.23L41.23,46,35.77,62.27,32.83,72Z"/><path class="cls-5" d="M18.38,62.79c-.13.24,2.73,4.46,5.87,9.21H31L28,62.27l-5-16.19-3,2c-1.33.72-2.37,7.79-2.84,9.23l4.54-.48Z"/><path class="cls-6" d="M13.11,72a71.84,71.84,0,0,1-.52-8,69.52,69.52,0,0,0-.86-13.21c-.93.18-1.79.65-2.86.94C1.13,53.78.9,59,.34,64.61.09,67.17.43,69.53,0,72Z"/><path class="cls-4" d="M24.71,43.26A3.36,3.36,0,0,1,24,44.81c-.19.17-1.29.85-1.25,1.08a13.26,13.26,0,0,1,.05,5.54c-.32,1.56-.9,3.12-2.45,3.83a3.06,3.06,0,0,0-.61.36,1.92,1.92,0,0,0-.23.19c-.42.38-.26.57-.16,1.1,0,.09,0,.17,0,.27a8.2,8.2,0,0,1,0,2.32,11.81,11.81,0,0,1-.43,2c-.7,2.4-1.42,4.71-3.74,6-1.51.84-3.52,1.32-4.05,3-1.93-5.62.81-11.1,5.2-14.59l.11-.08a1.25,1.25,0,0,0,.38-.38,1,1,0,0,0,0-.85,4,4,0,0,0-.22-.53,6.27,6.27,0,0,1,.71-6c.91-1.26,4.09-1.78,3.9-3.67a3.24,3.24,0,0,0-.6-1.31c-1.74-3.08,1.12-5.41,3.62-7,.21-.12.41-.24.6-.37l.39.48A19.09,19.09,0,0,1,24.71,43.26Z"/></g><path class="cls-7" d="M19.5,55.81c-.42.38-.26.57-.16,1.1,0,.09,0,.17,0,.27-.87-.44-2-1-3-1.36l.11-.08a1.25,1.25,0,0,0,.38-.38,1,1,0,0,0,0-.85,12.11,12.11,0,0,1,2.84,1.11A1.92,1.92,0,0,0,19.5,55.81Z"/></g></g></g></svg>