<svg xmlns="http://www.w3.org/2000/svg" viewBox="0 0 69.66 72"><defs><style>.cls-1{fill:#f0d09f;}.cls-2{fill:#e2b477;}.cls-3{fill:#d2a965;}.cls-4{fill:#894e3a;}.cls-5{fill:#7b371c;}.cls-6{fill:#fff;}.cls-7{fill:#78919e;}.cls-8{fill:#6a828c;}.cls-9{fill:#bad1dd;}.cls-10{fill:#1c75bc;}.cls-11{fill:#e4f4ff;}.cls-12{fill:#64787d;}</style></defs><title>male</title><g id="Layer_2" data-name="Layer 2"><g id="_1" data-name="1"><g id="_6" data-name="6"><path class="cls-1" d="M23.64,24.51a5.28,5.28,0,0,0-.52-2.33,4.58,4.58,0,0,0-.25-.56,1.33,1.33,0,0,0-.64-.66c-1.24-.5-2.42,1.23-2.52,2.27a4,4,0,0,0,0,.77A5.16,5.16,0,0,0,20,25.57a5.74,5.74,0,0,0,.3.74c1.23,1.65,1.23,5.21,3.9,3.43.89-.89,0-3.56-.59-4.45A2.28,2.28,0,0,1,23.64,24.51Z"/><path class="cls-2" d="M47.43,21a1.33,1.33,0,0,0-.64.66,4.58,4.58,0,0,0-.25.56A5.27,5.27,0,0,0,46,24.51a2.27,2.27,0,0,1,0,.78c-.58.89-1.47,3.56-.58,4.45,2.67,1.78,2.67-1.78,3.9-3.43.11-.25.21-.49.3-.74A5.15,5.15,0,0,0,50,24a5,5,0,0,0,0-.77C49.85,22.19,48.68,20.46,47.43,21Z"/><path class="cls-3" d="M42.53,37.07l0,0-.82.84c-1.72,1.66-3.83,3.21-6,3.58a6.42,6.42,0,0,1-.89,0h-.64V55.37l.44,0h.44c4.53.62,4.57-4.13,8.06-8.11q-.45-3-.78-6.23C42.15,39.08,42.51,38.59,42.53,37.07Z"/><path class="cls-2" d="M27.9,37.86c-.26-.25-.5-.51-.74-.76l0,0c-.11,1.8.28,2,.08,3.93q-.33,3.24-.78,6.23c3.37,3.84,3.67,8.39,7.76,8.14V41.56l-.25,0C31.78,41.15,29.64,39.56,27.9,37.86Z"/><path class="cls-1" d="M22.61,15.4a15.2,15.2,0,0,0-.21,2.16c-.35,2.53.29,9.66.29,9.81A14,14,0,0,0,26.19,36c.3.35.63.71,1,1.08s.48.51.74.76c1.74,1.7,3.88,3.29,6,3.67l.25,0V7.45C27.07,7.91,23.62,9.49,22.61,15.4Z"/><path class="cls-2" d="M47.06,15.4C46,9.31,42.4,7.82,34.83,7.4l-.64,0V41.56h.64a6.42,6.42,0,0,0,.89,0c2.13-.37,4.24-1.92,6-3.58l.82-.84c.34-.37.67-.74,1-1.09A13.89,13.89,0,0,0,47,27.37c0-.15.65-7.28.3-9.81A15.2,15.2,0,0,0,47.06,15.4Z"/><path class="cls-4" d="M22.42,5.8c-2.94,3.44-2.72,7.06-1.83,11.33.24,1.12.87,5.17,1.7,8.42.13.49.77.12,1.09.17.42-1.33,0-7.53.32-9.24s.68-4.57,2-5.64a5.44,5.44,0,0,1,3.57-1c1.26.05,2.5.35,3.75.52a6.48,6.48,0,0,0,1.46,0V.89c-.55,0-1.1.07-1.64.13C28.92,1.41,25,2.74,22.42,5.8Z"/><path class="cls-5" d="M46.2,0c-3.81.93-7.79.66-11.71.88v9.5c2.35-.22,5-1.35,7.08-.65,2.36.79,3.66,5.28,4.18,7.46.63,2.58.41,5.12.5,7.77l1.13-.18c.67-3.71,2.83-6.87,3-10.84a15.87,15.87,0,0,0-.06-2.39C50.22,10.48,47.6-.33,46.2,0Z"/><path class="cls-6" d="M26.62,45.94l-4.33,3.77A44.56,44.56,0,0,0,25.45,55a42.84,42.84,0,0,0,5,5.93s1.19-4.75,4.3-7.11C30.05,52.17,26.62,45.94,26.62,45.94Z"/><path class="cls-7" d="M34.8,72V53.79s-2.07,4.44-4.45,3.26l-3.66-9.16-3.24,1.48-3.75,1.74-1.16.36-3.07,1L7.65,54.85a5.46,5.46,0,0,0-2.31,1.43l-3,3.18A5.37,5.37,0,0,0,1,62.15C.75,63.34.41,69.76,0,72Z"/><path class="cls-8" d="M69.66,72c-.41-2.24-.75-8.66-1-9.85a5.37,5.37,0,0,0-1.37-2.69l-3-3.18A5.4,5.4,0,0,0,62,54.85L54.2,52.43l-3.07-1L50,51.11l-3.76-1.74L43,47.89l-3.67,9.16c-2.38,1.18-4.45-3.26-4.45-3.26V72Z"/><path class="cls-9" d="M42,72l2-9.93-8.3-9.26H34.59S25.87,62,25.93,62.65l2,9.35Z"/><path class="cls-10" d="M33.37,59,31.51,72h6.9L36.55,59a1.81,1.81,0,0,1,.17-1.25l1.12-2.11a.34.34,0,0,0-.08-.37L36.47,54a3.69,3.69,0,0,1-.82-1c-.12-.27-.45-.89-.84-.63a3.06,3.06,0,0,0-.68.89,7.15,7.15,0,0,1-.83.82l-1.15,1.15a.34.34,0,0,0-.08.37l1.12,2.11A1.81,1.81,0,0,1,33.37,59Z"/><path class="cls-11" d="M35.18,52.06a.33.33,0,0,1-.45,0L26.4,44l-1.87,5.86,3.6,12.81,6.55-9.89a.32.32,0,0,1,.55,0l6.55,9.89,3.6-12.81L43.52,44Z"/><path class="cls-12" d="M18.67,58.89,23.12,72h7.63l-.58-1.89-2.5-12-3.14-9.35c-.72.21-3.1,1.26-5.5,2A21.23,21.23,0,0,0,18,54.25l5.4,2.66Z"/><path class="cls-12" d="M46.75,72l4.5-13.11-4.7-2L52,54.25A18.34,18.34,0,0,0,50.88,51c-2.39-.72-4.78-2-5.49-2.22L41.11,61.43l-1.37,8.68L39.09,72Z"/></g></g></g></svg>